<svg width="1440" height="900" viewBox="0 0 1440 900" fill="none" xmlns="http://www.w3.org/2000/svg">
<path fill-rule="evenodd" clip-rule="evenodd" d="M981.027 14.5636C970.7 23.7763 962.075 33.4011 954.742 45.1409C953.804 47.166 952.704 48.9267 951.604 50.6874L951.604 50.6882C950.504 52.4492 949.404 54.2102 948.466 56.2355C907.699 131.962 933.441 238.211 1006.6 327.111C1007.31 327.923 1008.01 328.738 1008.72 329.554L1008.72 329.555C1022.87 345.926 1037.67 363.036 1054.16 376.471C1070.42 391.222 1088.8 404.682 1108.23 417.497L1111.23 420.024C1114.23 421.908 1117.13 423.764 1119.95 425.572L1119.96 425.578C1128.15 430.82 1135.69 435.652 1143.46 439.543C1184.84 462.18 1226.58 475.891 1266.55 481.967L1322.75 573.967C1363.45 640.587 1342.11 729.129 1275.57 769.779L586.877 1190.48C520.332 1231.13 432.871 1209.05 392.174 1142.43L-27.7128 455.072C-68.4095 388.451 -47.0742 299.909 18.4147 259.904L708.16 -161.442C774.706 -202.092 862.167 -180.011 902.863 -113.391L981.027 14.5636ZM949.023 49.1565C947.958 50.8622 946.791 52.7309 945.782 54.8912C904.246 132.152 930.78 239.699 1004.29 329.017L1004.31 329.046L1004.33 329.074C1005.05 329.906 1005.78 330.741 1006.5 331.579C1020.59 347.876 1035.52 365.148 1052.2 378.747C1068.57 393.579 1087 407.085 1106.43 419.904L1109.29 422.317L1109.45 422.454L1109.63 422.568C1112.58 424.408 1115.43 426.239 1118.23 428.033L1118.23 428.034C1126.44 433.293 1134.16 438.237 1142.06 442.201C1183.26 464.725 1224.82 478.488 1264.72 484.719L1320.19 575.531C1360.02 640.74 1339.13 727.434 1274 767.219L585.313 1187.92C520.213 1227.69 434.587 1206.1 394.734 1140.86L-25.1527 453.508C-64.9962 388.284 -44.0792 301.595 19.9786 262.464L709.724 -158.882C774.824 -198.649 860.451 -177.065 900.303 -111.827L977.17 14.0051C967.489 22.8665 959.263 32.2401 952.198 43.5517L952.099 43.7102L952.02 43.8797C951.172 45.7104 950.171 47.32 949.059 49.099L949.023 49.1565ZM872.108 242.28C867.586 234.878 857.373 232.405 848.922 237.567L409.935 508.586L404.908 511.69L402.355 513.266L400.791 510.706L333.235 400.116C328.713 392.714 316.387 391.531 304.768 398.629L255.123 428.956C244.561 435.408 238.93 447.56 243.452 454.962L516.055 901.216C520.577 908.618 532.903 909.801 544.522 902.703L594.167 872.377C604.73 865.924 610.36 853.772 605.839 846.37L537.365 734.278L978.905 461.682L985.496 461.138L541.481 735.262L608.399 844.806C611.364 849.661 610.791 855.678 608.392 860.968C605.967 866.315 601.497 871.415 595.731 874.937L546.086 905.263C539.83 909.085 533.237 910.771 527.431 910.391C521.636 910.011 516.394 907.525 513.495 902.78L240.892 456.526C237.926 451.671 238.5 445.654 240.899 440.364C243.323 435.017 247.793 429.918 253.559 426.395L303.204 396.069C309.46 392.247 316.054 390.562 321.859 390.942C327.654 391.321 332.896 393.807 335.795 398.552L403.344 509.13L847.346 235.014L847.352 235.01L847.359 235.006C857.1 229.056 869.21 231.781 874.668 240.716L992.882 434.234C998.339 443.166 995.24 455.178 985.508 461.131L978.917 461.674L983.932 458.578C992.382 453.416 994.844 443.2 990.322 435.798L872.108 242.28ZM978.917 461.674L409.935 508.586L978.905 461.682L978.917 461.674ZM1441.73 285.952L1441.72 285.976L1441.71 286C1420.79 325.555 1379.47 347.111 1329.05 349.675C1278.61 352.24 1219.32 335.741 1163.3 299.406C1107.28 263.074 1065.57 214.142 1043.33 164.249C1021.09 114.33 1018.46 63.776 1039.95 23.7943C1061.19 -15.2573 1102.53 -36.8159 1152.87 -39.5098C1203.23 -42.2046 1262.36 -25.9679 1318.37 10.3637C1374.39 46.6939 1416.26 95.8896 1438.58 145.917C1460.91 195.981 1463.52 246.517 1441.73 285.952ZM1320 7.84669C1207.09 -65.3862 1081.03 -58.033 1037.31 22.3668C993.176 104.469 1048.75 228.69 1161.66 301.923C1274.58 375.156 1401.28 368.859 1444.36 287.402C1489.14 206.357 1432.92 81.0797 1320 7.84669ZM1134.2 344.821L1137.19 347.346C1147.23 354.275 1158.32 360.559 1169.41 366.843L1169.41 366.844C1232.51 400.095 1296.03 414.695 1351.59 413.269C1354.42 413.196 1357.23 413.082 1360.02 412.926C1357.47 414.11 1354.86 415.219 1352.2 416.254C1293.65 439.019 1210.57 425.863 1133.61 377.104C1070.89 336.655 1026.27 280.073 1006.13 223.665C1004.75 219.795 1003.48 215.926 1002.33 212.063C1004.44 215.517 1006.61 218.936 1008.83 222.32C1016.14 233.429 1024.07 244.16 1032.61 254.511C1046.34 272.242 1062.19 288.682 1080.15 303.832C1096.4 318.57 1114.77 332.018 1134.2 344.821ZM1168.01 369.498C1228.22 401.227 1288.91 416.131 1342.89 416.361C1286.08 434.485 1208.12 420.757 1135.23 374.577C1077.45 337.311 1035.25 286.301 1013.59 234.599C1018.86 242.038 1024.42 249.3 1030.27 256.385C1044.12 274.263 1060.09 290.831 1078.17 306.09C1094.53 320.917 1112.97 334.416 1132.4 347.228L1135.26 349.639L1135.37 349.732L1135.49 349.814C1145.63 356.819 1156.82 363.158 1167.87 369.417L1167.93 369.454L1167.97 369.476L1168.01 369.498ZM1311.67 31.7478L1311.66 31.7395L1311.65 31.7313C1269.51 4.71919 1225.05 -8.5878 1185.93 -8.30988C1146.8 -8.03195 1112.79 5.85939 1092.13 33.5035L1096.21 37.7858C1140.02 8.20663 1215.76 12.8091 1285.21 58.1847L1285.22 58.1923L1285.23 58.1998C1328.84 86.1224 1361.18 124.445 1378.47 163.577C1395.78 202.748 1397.89 242.39 1381.72 273.314L1381.69 273.377L1381.66 273.442C1379.74 277.59 1378.02 281.237 1375.81 283.861L1379.87 288.217C1392.14 279.245 1403.24 268.012 1410.21 254.698C1427.84 222.146 1424.97 180.627 1406.98 140.363C1388.97 100.043 1355.66 60.5811 1311.67 31.7478ZM1310.03 34.2568C1397.12 91.3394 1441.66 190.376 1407.56 253.287C1402.18 263.576 1394.18 272.649 1385 280.384C1382.76 282.268 1380.46 284.072 1378.1 285.795C1379.83 283.743 1381.26 281.194 1382.59 278.489C1383.2 277.249 1383.79 275.977 1384.38 274.704C1417.83 210.736 1374.99 112.111 1286.85 55.6733C1220.71 12.4605 1148.24 5.48599 1102.33 30.5562C1099.64 32.0272 1097.03 33.6086 1094.53 35.2993C1096.39 32.8069 1098.37 30.4283 1100.45 28.1637C1143.02 -18.0889 1230.47 -16.7469 1310.03 34.2568Z" fill="url(#paint0_linear_108_8352)"/>
<defs>
<linearGradient id="paint0_linear_108_8352" x1="1170.5" y1="78" x2="175" y2="877" gradientUnits="userSpaceOnUse">
<stop stop-color="#E5EAF9"/>
<stop offset="1" stop-color="#D9E0F4"/>
</linearGradient>
</defs>
</svg>
