<svg width="154" height="154" viewBox="0 0 154 154" fill="none" xmlns="http://www.w3.org/2000/svg">
    <path opacity="0.06" d="M77 154C119.526 154 154 119.526 154 77C154 34.4741 119.526 0 77 0C34.4741 0 0 34.4741 0 77C0 119.526 34.4741 154 77 154Z" fill="#374867"/>
    <path d="M77 138C110.689 138 138 110.689 138 77C138 43.3106 110.689 16 77 16C43.3106 16 16 43.3106 16 77C16 110.689 43.3106 138 77 138Z" fill="#374867"/>
    <path d="M68.7882 89.6084C68.5449 89.87 68.1341 89.8801 67.8782 89.6309L56.8888 78.9242C55.6123 77.481 54.2414 79.0617 52.9649 80.5049C51.6884 81.9481 51.0299 82.6617 52.3064 84.1048L66.0208 99.6098C67.1346 99.8876 69.1847 99.7992 70.6359 99.6098L105.331 60.4218C106.607 58.9786 105.141 57.9971 103.864 56.5539C102.588 55.1107 102.025 53.798 100.749 55.2411L68.7882 89.6084Z" fill="#EFEFF4"/>
</svg>