<svg width="154" height="154" viewBox="0 0 154 154" fill="none" xmlns="http://www.w3.org/2000/svg">
    <path opacity="0.06" d="M77 154C119.526 154 154 119.526 154 77C154 34.4741 119.526 0 77 0C34.4741 0 0 34.4741 0 77C0 119.526 34.4741 154 77 154Z" fill="#9B3589"/>
    <path d="M78 137C111.137 137 138 110.137 138 77C138 43.8629 111.137 17 78 17C44.8629 17 18 43.8629 18 77C18 110.137 44.8629 137 78 137Z" fill="#BA1A1A"/>
    <path d="M95.9002 58.1302C94.7302 56.9602 92.8402 56.9602 91.6702 58.1302L77.0002 72.7702L62.3302 58.1002C61.1602 56.9302 59.2702 56.9302 58.1002 58.1002C56.9302 59.2702 56.9302 61.1602 58.1002 62.3302L72.7702 77.0002L58.1002 91.6702C56.9302 92.8402 56.9302 94.7302 58.1002 95.9002C59.2702 97.0702 61.1602 97.0702 62.3302 95.9002L77.0002 81.2302L91.6702 95.9002C92.8402 97.0702 94.7302 97.0702 95.9002 95.9002C97.0702 94.7302 97.0702 92.8402 95.9002 91.6702L81.2302 77.0002L95.9002 62.3302C97.0402 61.1902 97.0402 59.2702 95.9002 58.1302Z" fill="#EFEFF4"/>
</svg>
