<svg width="18" height="18" viewBox="0 0 18 18" fill="none" xmlns="http://www.w3.org/2000/svg">
<path d="M16.2291 12.2598L13.6891 11.9698C13.0791 11.8998 12.4791 12.1098 12.0491 12.5398L10.2091 14.3798C7.37906 12.9398 5.05906 10.6298 3.61906 7.78977L5.46906 5.93976C5.89906 5.50977 6.10906 4.90977 6.03906 4.29977L5.74906 1.77977C5.62906 0.769766 4.77906 0.00976562 3.75906 0.00976562H2.02906C0.899064 0.00976562 -0.0409359 0.949766 0.0290641 2.07977C0.559064 10.6198 7.38906 17.4398 15.9191 17.9698C17.0491 18.0398 17.9891 17.0998 17.9891 15.9698V14.2398C17.9991 13.2298 17.2391 12.3798 16.2291 12.2598Z" fill="#9B3589"/>
</svg>
