<svg class="footer_05_social-icon" xmlns="http://www.w3.org/2000/svg" width="100%" viewBox="0 0 37 37"
     fill="none">
    <g clip-path="url(#clip0_317_1041)">
        <path
                d="M9.3824 36.869C7.95127 36.8531 6.53359 36.5906 5.19161 36.0931C4.21163 35.7309 3.325 35.1542 2.59653 34.4053C1.84556 33.6783 1.26804 32.7914 0.906862 31.8106C0.409812 30.4686 0.147703 29.0511 0.132039 27.6201C0.0221274 25.2412 0 24.5277 0 18.5C0 12.4723 0.0243039 11.7613 0.130951 9.38059C0.148516 7.9502 0.410947 6.53339 0.906862 5.19161C1.2698 4.21147 1.8465 3.32448 2.59508 2.59508C3.32265 1.84479 4.2097 1.2678 5.19052 0.906862C6.5325 0.4094 7.95018 0.146922 9.38131 0.130951C11.7609 0.0221274 12.4755 0 18.5 0C24.5245 0 25.2387 0.0243039 27.6194 0.130951C29.0502 0.148392 30.4673 0.410825 31.8095 0.906862C32.7899 1.26828 33.6767 1.84506 34.4045 2.59471C35.1544 3.32283 35.7315 4.20987 36.0931 5.19052C36.5907 6.53248 36.8533 7.95016 36.8694 9.38131C36.9782 11.762 37.0004 12.4748 37.0004 18.5007C37.0004 24.5266 36.9782 25.2394 36.8694 27.6201C36.8521 29.051 36.5896 30.4684 36.0931 31.8106C35.7176 32.7839 35.1425 33.6678 34.4047 34.4053C33.6669 35.1429 32.7829 35.7179 31.8095 36.0931C30.4675 36.5907 29.0498 36.8533 27.6187 36.8694C25.2402 36.9782 24.5252 37.0004 18.4993 37.0004C12.4733 37.0004 11.7606 36.9793 9.38204 36.8694"
                fill="url(#paint0_radial_317_1041)"></path>
        <path
                d="M9.3824 36.869C7.95127 36.8531 6.53359 36.5906 5.19161 36.0931C4.21163 35.7309 3.325 35.1542 2.59653 34.4053C1.84556 33.6783 1.26804 32.7914 0.906862 31.8106C0.409812 30.4686 0.147703 29.0511 0.132039 27.6201C0.0221274 25.2412 0 24.5277 0 18.5C0 12.4723 0.0243039 11.7613 0.130951 9.38059C0.148516 7.9502 0.410947 6.53339 0.906862 5.19161C1.2698 4.21147 1.8465 3.32448 2.59508 2.59508C3.32265 1.84479 4.2097 1.2678 5.19052 0.906862C6.5325 0.4094 7.95018 0.146922 9.38131 0.130951C11.7609 0.0221274 12.4755 0 18.5 0C24.5245 0 25.2387 0.0243039 27.6194 0.130951C29.0502 0.148392 30.4673 0.410825 31.8095 0.906862C32.7899 1.26828 33.6767 1.84506 34.4045 2.59471C35.1544 3.32283 35.7315 4.20987 36.0931 5.19052C36.5907 6.53248 36.8533 7.95016 36.8694 9.38131C36.9782 11.762 37.0004 12.4748 37.0004 18.5007C37.0004 24.5266 36.9782 25.2394 36.8694 27.6201C36.8521 29.051 36.5896 30.4684 36.0931 31.8106C35.7176 32.7839 35.1425 33.6678 34.4047 34.4053C33.6669 35.1429 32.7829 35.7179 31.8095 36.0931C30.4675 36.5907 29.0498 36.8533 27.6187 36.8694C25.2402 36.9782 24.5252 37.0004 18.4993 37.0004C12.4733 37.0004 11.7606 36.9793 9.38204 36.8694"
                fill="url(#paint1_radial_317_1041)"></path>
        <path
                d="M13.9574 18.5788C13.9574 17.6725 14.2262 16.7867 14.7298 16.0333C15.2333 15.2798 15.9489 14.6926 16.7862 14.3459C17.6235 13.9992 18.5448 13.9085 19.4336 14.0854C20.3223 14.2623 21.1387 14.6988 21.7794 15.3397C22.4201 15.9805 22.8564 16.797 23.0331 17.6858C23.2098 18.5747 23.1189 19.4959 22.772 20.3331C22.4251 21.1703 21.8377 21.8858 21.0841 22.3892C20.3306 22.8925 19.4447 23.1611 18.5385 23.161C17.3234 23.1608 16.1581 22.6779 15.299 21.8186C14.4398 20.9593 13.9573 19.7939 13.9574 18.5788ZM11.4802 18.5788C11.4802 19.9748 11.8941 21.3394 12.6697 22.5002C13.4453 23.6609 14.5476 24.5656 15.8374 25.0998C17.1271 25.634 18.5463 25.7738 19.9155 25.5014C21.2846 25.2291 22.5423 24.5569 23.5294 23.5697C24.5166 22.5826 25.1888 21.325 25.4611 19.9558C25.7335 18.5866 25.5937 17.1674 25.0595 15.8777C24.5253 14.5879 23.6206 13.4856 22.4598 12.71C21.2991 11.9344 19.9345 11.5205 18.5385 11.5205C17.6115 11.5204 16.6937 11.703 15.8373 12.0577C14.9809 12.4123 14.2028 12.9323 13.5474 13.5877C12.892 14.2431 12.3721 15.0212 12.0174 15.8776C11.6627 16.734 11.4801 17.6518 11.4802 18.5788ZM24.2267 11.2408C24.2265 11.567 24.3231 11.8859 24.5042 12.1573C24.6854 12.4286 24.9429 12.6401 25.2442 12.7651C25.5455 12.8901 25.8772 12.9229 26.1971 12.8594C26.5171 12.7959 26.8111 12.6389 27.0419 12.4083C27.2726 12.1778 27.4299 11.8839 27.4936 11.564C27.5574 11.2441 27.5249 10.9124 27.4002 10.611C27.2755 10.3095 27.0642 10.0519 26.793 9.8705C26.5219 9.68914 26.203 9.59226 25.8768 9.59212C25.4395 9.59231 25.0202 9.76605 24.711 10.0752C24.4017 10.3843 24.2278 10.8035 24.2274 11.2408M12.9859 29.7676C12.1143 29.7581 11.2508 29.5986 10.4333 29.2961C9.84041 29.0676 9.30195 28.7174 8.85256 28.2682C8.40318 27.819 8.05283 27.2807 7.82406 26.6879C7.52145 25.8705 7.36193 25.0069 7.3525 24.1353C7.28575 22.6865 7.27269 22.2512 7.27269 18.5806C7.27269 14.91 7.2872 14.4758 7.3525 13.0255C7.36307 12.154 7.52255 11.2906 7.82406 10.4729C8.05256 9.87979 8.40281 9.3412 8.85222 8.89179C9.30163 8.44238 9.84022 8.09213 10.4333 7.86363C11.2508 7.56103 12.1143 7.40151 12.9859 7.39207C14.4347 7.32532 14.87 7.31226 18.5392 7.31226C22.2084 7.31226 22.644 7.32641 24.0943 7.39243C24.9658 7.40301 25.8291 7.56249 26.6469 7.864C27.24 8.09252 27.7785 8.44277 28.228 8.89218C28.6774 9.34158 29.0276 9.88017 29.2561 10.4732C29.5587 11.2907 29.7182 12.1542 29.7277 13.0259C29.7944 14.4768 29.8075 14.91 29.8075 18.5809C29.8075 22.2519 29.7941 22.6858 29.7277 24.136C29.7175 25.0076 29.558 25.871 29.2561 26.6887C29.0274 27.2814 28.677 27.8198 28.2276 28.269C27.7782 28.7182 27.2398 29.0683 26.6469 29.2968C25.8294 29.5994 24.9659 29.7589 24.0943 29.7684C22.6455 29.8351 22.2102 29.8482 18.5392 29.8482C14.8682 29.8482 14.4344 29.8348 12.9859 29.7684M12.872 4.91705C11.7315 4.93948 10.603 5.15535 9.53477 5.55548C8.62156 5.90856 7.79221 6.44858 7.09989 7.14091C6.40757 7.83323 5.86755 8.66258 5.51446 9.57579C5.11439 10.6441 4.89852 11.7725 4.87604 12.9131C4.80821 14.3785 4.79297 14.8472 4.79297 18.5802C4.79297 22.3132 4.80857 22.7815 4.87604 24.2474C4.89851 25.3879 5.11438 26.5164 5.51446 27.5846C5.86757 28.4978 6.40759 29.3272 7.09991 30.0195C7.79223 30.7118 8.62157 31.2518 9.53477 31.605C10.6031 32.0049 11.7315 32.2208 12.872 32.2434C14.3382 32.3101 14.8062 32.3265 18.5392 32.3265C22.2722 32.3265 22.7405 32.3109 24.2064 32.2434C25.3469 32.2209 26.4753 32.005 27.5436 31.605C28.4568 31.2518 29.2861 30.7118 29.9785 30.0195C30.6708 29.3272 31.2108 28.4978 31.5639 27.5846C31.9645 26.5165 32.1804 25.388 32.2023 24.2474C32.2691 22.7808 32.2843 22.3132 32.2843 18.5802C32.2843 14.8472 32.2687 14.3789 32.2023 12.9131C32.1799 11.7725 31.964 10.6441 31.5639 9.57579C31.2108 8.66275 30.6709 7.83353 29.9788 7.14123C29.2867 6.44893 28.4576 5.90881 27.5447 5.55548C26.4765 5.15509 25.348 4.93921 24.2074 4.91705C22.7416 4.84995 22.2733 4.83398 18.541 4.83398C14.8087 4.83398 14.3393 4.84958 12.8727 4.91705"
                fill="white"></path>
    </g>
    <defs>
        <radialGradient id="paint0_radial_317_1041" cx="0" cy="0" r="1" gradientUnits="userSpaceOnUse"
                        gradientTransform="translate(2.39448 36.1896) scale(46.9762)">
            <stop offset="0.09" stop-color="#FA8F21"></stop>
            <stop offset="0.78" stop-color="#D82D7E"></stop>
        </radialGradient>
        <radialGradient id="paint1_radial_317_1041" cx="0" cy="0" r="1" gradientUnits="userSpaceOnUse"
                        gradientTransform="translate(25.6287 35.0013) scale(41.3395)">
            <stop offset="0.64" stop-color="#8C3AAA" stop-opacity="0"></stop>
            <stop offset="1" stop-color="#8C3AAA"></stop>
        </radialGradient>
        <clipPath id="clip0_317_1041">
            <rect width="37" height="37" fill="white"></rect>
        </clipPath>
    </defs>
</svg>