<svg class="footer_05_social-icon" xmlns="http://www.w3.org/2000/svg" width="100%" viewBox="0 0 37 37"
     fill="none">
    <path
            d="M31.5578 3.08322H5.44203C5.14846 3.07915 4.85697 3.13294 4.58419 3.24153C4.31142 3.35012 4.06271 3.51138 3.85226 3.7161C3.64181 3.92082 3.47376 4.16499 3.35769 4.43466C3.24161 4.70434 3.1798 4.99424 3.17578 5.28781V31.712C3.1798 32.0056 3.24161 32.2955 3.35769 32.5651C3.47376 32.8348 3.64181 33.079 3.85226 33.2837C4.06271 33.4884 4.31142 33.6497 4.58419 33.7583C4.85697 33.8669 5.14846 33.9206 5.44203 33.9166H31.5578C31.8514 33.9206 32.1429 33.8669 32.4157 33.7583C32.6885 33.6497 32.9372 33.4884 33.1476 33.2837C33.3581 33.079 33.5261 32.8348 33.6422 32.5651C33.7583 32.2955 33.8201 32.0056 33.8241 31.712V5.28781C33.8201 4.99424 33.7583 4.70434 33.6422 4.43466C33.5261 4.16499 33.3581 3.92082 33.1476 3.7161C32.9372 3.51138 32.6885 3.35012 32.4157 3.24153C32.1429 3.13294 31.8514 3.07915 31.5578 3.08322ZM12.472 28.8907H7.84703V15.0157H12.472V28.8907ZM10.1595 13.0732C9.52168 13.0732 8.90996 12.8198 8.45894 12.3688C8.00791 11.9178 7.75453 11.3061 7.75453 10.6682C7.75453 10.0304 8.00791 9.41866 8.45894 8.96763C8.90996 8.51661 9.52168 8.26323 10.1595 8.26323C10.4982 8.22481 10.8412 8.25838 11.166 8.36171C11.4909 8.46505 11.7902 8.63583 12.0445 8.86288C12.2987 9.08992 12.5021 9.36811 12.6414 9.67922C12.7807 9.99033 12.8527 10.3274 12.8527 10.6682C12.8527 11.0091 12.7807 11.3461 12.6414 11.6572C12.5021 11.9683 12.2987 12.2465 12.0445 12.4736C11.7902 12.7006 11.4909 12.8714 11.166 12.9747C10.8412 13.0781 10.4982 13.1116 10.1595 13.0732ZM29.1529 28.8907H24.5279V21.4445C24.5279 19.5791 23.8649 18.3611 22.1845 18.3611C21.6645 18.365 21.1581 18.5281 20.7336 18.8285C20.3091 19.129 19.9869 19.5524 19.8104 20.0416C19.6897 20.4039 19.6374 20.7855 19.6562 21.167V28.8753H15.0312C15.0312 28.8753 15.0312 16.2645 15.0312 15.0003H19.6562V16.9582C20.0763 16.2292 20.6874 15.6286 21.4236 15.2211C22.1598 14.8136 22.9932 14.6147 23.8341 14.6457C26.9174 14.6457 29.1529 16.6345 29.1529 20.9049V28.8907Z"
            fill="#0A66C2"></path>
</svg>