<svg class="navbar_18_logo" xmlns="http://www.w3.org/2000/svg" width="100%" viewBox="0 0 333 68"
     fill="none">
    <path
            d="M148.434 25.2052C145.244 23.4383 141.588 22.5548 137.461 22.5548C133.389 22.5548 129.746 23.4383 126.53 25.2052C123.316 26.9721 120.796 29.4215 118.974 32.5535C117.151 35.6854 116.242 39.314 116.242 43.4356C116.242 47.5591 117.153 51.1858 118.974 54.3177C120.796 57.4497 123.314 59.8991 126.53 61.666C129.746 63.4329 133.389 64.3164 137.461 64.3164C141.586 64.3164 145.244 63.4329 148.434 61.666C151.621 59.8991 154.126 57.4497 155.949 54.3177C157.771 51.1858 158.682 47.5591 158.682 43.4356C158.682 39.314 157.769 35.6854 155.949 32.5535C154.126 29.4215 151.621 26.9721 148.434 25.2052ZM147.43 49.781C146.466 51.601 145.126 53.021 143.411 54.0371C141.696 55.0552 139.713 55.5633 137.463 55.5633C135.212 55.5633 133.23 55.0552 131.516 54.0371C129.801 53.021 128.461 51.601 127.497 49.781C126.534 47.961 126.05 45.8452 126.05 43.4356C126.05 40.9729 126.532 38.8458 127.497 37.0504C128.463 35.2569 129.801 33.8521 131.516 32.8341C133.23 31.8179 135.212 31.3079 137.463 31.3079C139.713 31.3079 141.696 31.8179 143.411 32.8341C145.125 33.8521 146.466 35.2569 147.43 37.0504C148.394 38.8458 148.878 40.9729 148.878 43.4356C148.876 45.8452 148.394 47.961 147.43 49.781Z"
            fill="currentColor"></path>
    <path
            d="M196.7 25.1654C193.968 23.3719 190.725 22.4752 186.974 22.4752C183.919 22.4752 181.147 23.0913 178.654 24.3217C176.766 25.2564 175.239 26.4659 174.074 27.9523C173.743 28.3731 173.068 28.1286 173.068 27.594V6.52927C173.068 4.91212 171.757 3.6021 170.138 3.6021H166.192C164.573 3.6021 163.262 4.91212 163.262 6.52927V60.4659C163.262 62.0603 164.556 63.3533 166.152 63.3533H169.706C171.201 63.3533 172.449 62.2139 172.584 60.7276L172.755 58.8564C172.802 58.3274 173.476 58.1644 173.785 58.5966C174.914 60.1797 176.419 61.4707 178.293 62.4698C180.705 63.7552 183.384 64.3979 186.331 64.3979C190.135 64.3979 193.444 63.5277 196.258 61.7873C199.072 60.0488 201.268 57.626 202.85 54.5187C204.429 51.4133 205.222 47.8529 205.222 43.8375C205.222 39.6079 204.484 35.8864 203.011 32.6748C201.535 29.4633 199.433 26.9607 196.7 25.1654ZM194.088 49.6198C193.203 51.4398 191.93 52.8731 190.27 53.9158C188.608 54.9604 186.625 55.4818 184.322 55.4818C182.071 55.4818 180.102 54.9737 178.415 53.9556C176.726 52.9394 175.426 51.5062 174.516 49.6596C173.603 47.8131 173.15 45.7125 173.15 43.356C173.15 40.9464 173.605 38.8325 174.516 37.0106C175.426 35.1906 176.726 33.7725 178.415 32.7544C180.104 31.7383 182.071 31.2283 184.322 31.2283C186.625 31.2283 188.608 31.7496 190.27 32.7942C191.93 33.8389 193.203 35.2721 194.088 37.0902C194.972 38.9102 195.414 40.9994 195.414 43.3541C195.414 45.7125 194.972 47.7998 194.088 49.6198Z"
            fill="currentColor"></path>
    <path
            d="M236.045 24.3615C233.499 23.1046 230.431 22.4752 226.843 22.4752C223.306 22.4752 220.185 23.0648 217.479 24.2421C214.772 25.4194 212.682 27.0669 211.21 29.1808C210.216 30.6083 209.557 32.2103 209.235 33.9905C208.979 35.4029 210.119 36.6902 211.557 36.6902H215.286C216.293 36.6902 217.242 35.8731 217.492 34.8967C217.824 33.6057 218.544 32.5573 219.65 31.7515C221.23 30.6008 223.467 30.0244 226.361 30.0244C228.021 30.0244 229.469 30.2936 230.7 30.8283C231.932 31.3648 232.882 32.18 233.554 33.2777C234.224 34.3754 234.558 35.8352 234.558 37.6552V38.0154C234.558 38.3111 234.332 38.5557 234.036 38.5804L222.661 39.5017C217.946 39.8771 214.314 41.1473 211.77 43.3162C209.223 45.485 207.952 48.3894 207.952 52.0294C207.952 55.7244 209.17 58.7085 211.61 60.9835C214.049 63.2604 217.358 64.396 221.538 64.396C224.646 64.396 227.418 63.7533 229.856 62.4679C231.678 61.5086 233.057 60.3389 233.996 58.9606C234.292 58.5265 234.962 58.68 235.034 59.2014L235.22 60.5531C235.44 62.157 236.81 63.3514 238.43 63.3514H240.802C242.592 63.3514 244.043 61.9011 244.043 60.1133V39.2591C244.043 35.5641 243.347 32.4738 241.954 29.9827C240.558 27.4954 238.588 25.6204 236.045 24.3615ZM234.638 47.2917C234.638 50.344 233.74 52.7271 231.945 54.4391C230.15 56.1529 227.725 57.0098 224.67 57.0098C222.473 57.0098 220.784 56.5681 219.606 55.6846C218.428 54.8012 217.838 53.4494 217.838 51.6294C217.838 50.0236 218.481 48.725 219.767 47.7335C221.054 46.7438 223.225 46.1144 226.277 45.8471L234.021 45.1779C234.353 45.1494 234.638 45.4092 234.638 45.7428V47.2917Z"
            fill="currentColor"></path>
    <path
            d="M273.138 22.4752C270.406 22.4752 267.915 23.0364 265.662 24.1606C263.86 25.0611 262.385 26.2536 261.236 27.7361C260.926 28.1343 260.296 27.9845 260.22 27.4859L260 26.0545C259.79 24.6876 258.613 23.679 257.23 23.679H253.354C251.805 23.679 250.551 24.9322 250.551 26.4792V60.5531C250.551 62.1001 251.805 63.3533 253.354 63.3533H257.555C259.103 63.3533 260.357 62.1001 260.357 60.5531V41.991C260.357 38.7775 261.213 36.1954 262.93 34.2408C264.643 32.2862 267.03 31.3098 270.083 31.3098C272.656 31.3098 274.692 32.1402 276.193 33.799C277.692 35.4598 278.443 37.949 278.443 41.2687V60.5531C278.443 62.1001 279.698 63.3533 281.246 63.3533H285.367C286.915 63.3533 288.17 62.1001 288.17 60.5531V38.9387C288.17 33.8521 286.91 29.8367 284.392 26.8925C281.872 23.9483 278.121 22.4752 273.138 22.4752Z"
            fill="currentColor"></path>
    <path
            d="M325.723 23.679H321.211C320.437 23.679 319.699 24.0013 319.174 24.5682L305.548 39.2458C305.197 39.6231 304.565 39.3747 304.565 38.8609V6.3795C304.565 4.84577 303.321 3.6021 301.786 3.6021H297.617C296.082 3.6021 294.837 4.84577 294.837 6.3795V60.5778C294.837 62.1115 296.082 63.3552 297.617 63.3552H301.786C303.321 63.3552 304.565 62.1115 304.565 60.5778V52.9015C304.565 52.7556 304.622 52.6153 304.723 52.5091L309.846 47.1761C310.102 46.9088 310.542 46.9562 310.736 47.269L319.904 62.0414C320.411 62.8585 321.304 63.3552 322.266 63.3552H326.991C329.167 63.3552 330.499 60.9702 329.355 59.1199L317.413 39.7937C317.278 39.5738 317.306 39.2913 317.485 39.1055L327.733 28.375C329.42 26.6062 328.167 23.679 325.723 23.679Z"
            fill="currentColor"></path>
    <path
            d="M110.586 55.5633C109.138 55.5633 107.946 55.095 107.009 54.1585C106.07 53.2219 105.601 51.5763 105.601 49.2198V32.3582C105.601 32.0454 105.855 31.7913 106.169 31.7913H112.366C113.646 31.7913 114.684 30.7543 114.684 29.4746V25.9958C114.684 24.7161 113.646 23.679 112.366 23.679H106.169C105.855 23.679 105.601 23.425 105.601 23.1122V14.1619C105.601 12.5884 104.324 11.3106 102.748 11.3106H98.7288C97.1539 11.3106 95.875 12.5865 95.875 14.1619V23.1122C95.875 23.425 95.6208 23.679 95.3077 23.679H92.084C90.8032 23.679 89.7653 24.7161 89.7653 25.9958V29.4746C89.7653 30.7543 90.8032 31.7913 92.084 31.7913H95.3077C95.6208 31.7913 95.875 32.0454 95.875 32.3582V50.9867C95.875 54.0921 96.3703 56.6363 97.3626 58.6156C98.3531 60.5967 99.7742 62.0281 101.622 62.9116C103.47 63.795 105.654 64.2368 108.172 64.2368C110.034 64.2368 111.777 64.0206 113.402 63.5903C114.745 63.2339 115.593 61.9049 115.384 60.5323L114.967 57.7833C114.745 56.3235 113.403 55.2751 111.941 55.4704C111.481 55.5311 111.03 55.5633 110.586 55.5633Z"
            fill="currentColor"></path>
    <path
            d="M59.4482 34.364C62.0079 32.3904 64.8635 31.3894 67.9335 31.3894C71.8954 31.3894 75.0204 32.671 77.2081 35.1925C77.8362 35.9167 78.339 36.7433 78.7602 37.6059C79.3295 38.7718 80.4774 39.5472 81.779 39.5472H84.8472C87.1962 39.5472 88.7862 37.1774 87.9286 34.9915C87.5833 34.11 87.1772 33.2644 86.7104 32.4568C84.906 29.3419 82.3938 26.8489 79.2403 25.0478C76.0849 23.2468 72.3944 22.3349 68.2713 22.3349C63.6947 22.3349 59.6228 23.5141 56.1676 25.8403C52.9591 28.0016 49.8093 31.2719 46.7981 35.5735C46.5685 35.9015 46.0847 35.9015 45.8551 35.5735C42.842 31.2738 39.6923 28.0016 36.4856 25.8403C33.0285 23.5141 28.9566 22.3349 24.3819 22.3349C20.2569 22.3349 16.5475 23.2468 13.3579 25.0478C10.1645 26.8489 7.65044 29.3419 5.88584 32.4587C4.12123 35.5717 3.22565 39.2401 3.22565 43.3617C3.22565 47.3353 4.14021 50.9469 5.94086 54.0978C7.74342 57.2506 10.2575 59.7626 13.4129 61.5636C16.5664 63.3647 20.2588 64.2766 24.3819 64.2766C28.9585 64.2766 33.0304 63.0974 36.4856 60.7712C39.6923 58.6118 42.8401 55.3415 45.8551 51.0379C46.0847 50.7099 46.5685 50.7099 46.7981 51.0379C49.8112 55.3415 52.9591 58.6118 56.1676 60.7712C59.6209 63.0974 63.6928 64.2766 68.2713 64.2766C72.3944 64.2766 76.0849 63.3628 79.2403 61.5636C82.3957 59.7626 84.9079 57.2506 86.7123 54.0978C87.1791 53.2807 87.5852 52.4314 87.9324 51.5517C88.7786 49.398 87.2133 47.0642 84.8984 47.0642H81.6975C80.4414 47.0642 79.2953 47.7828 78.7564 48.9165C78.2252 50.0331 77.5155 51.0398 76.6237 51.929C74.4379 54.113 71.514 55.2201 67.9354 55.2201C64.8654 55.2201 62.0098 54.2191 59.4501 52.2456C56.9588 50.327 54.6421 47.4339 52.5568 43.646C52.46 43.4697 52.46 43.2479 52.5549 43.0697C54.6402 39.2117 56.9569 36.2826 59.4482 34.364ZM33.205 52.2494C30.6434 54.2229 27.7878 55.2239 24.7197 55.2239C21.0652 55.2239 18.1242 54.1168 15.9763 51.9346C13.8266 49.7506 12.7374 46.8671 12.7374 43.3636C12.7374 39.7122 13.8266 36.7736 15.9763 34.6256C18.1242 32.4776 21.0671 31.3894 24.7216 31.3894C27.7916 31.3894 30.6453 32.3904 33.2069 34.364C35.6982 36.2845 37.9846 39.2192 40.0053 43.0868C40.0945 43.2555 40.0926 43.4659 40.0034 43.6347C37.9808 47.4301 35.6963 50.327 33.205 52.2494Z"
            fill="currentColor"></path>
</svg>