<svg class="footer_05_social-icon" xmlns="http://www.w3.org/2000/svg" width="100%" viewBox="0 0 37 37"
     fill="none">
    <path
            d="M28.4107 2.64282C30.0487 2.64282 31.4493 3.22439 32.6124 4.38752C33.7756 5.55066 34.3571 6.95123 34.3571 8.58925V28.4107C34.3571 30.0487 33.7756 31.4493 32.6124 32.6124C31.4493 33.7756 30.0487 34.3571 28.4107 34.3571H24.529V22.072H28.6378L29.2572 17.2818H24.529V14.226C24.529 13.4551 24.6907 12.877 25.0142 12.4916C25.3377 12.1062 25.9674 11.9135 26.9034 11.9135L29.4224 11.8928V7.61883C28.5552 7.49495 27.3302 7.433 25.7472 7.433C23.8752 7.433 22.3782 7.9836 21.2564 9.08479C20.1346 10.186 19.5736 11.7414 19.5736 13.7511V17.2818H15.4442V22.072H19.5736V34.3571H8.58925C6.95123 34.3571 5.55066 33.7756 4.38752 32.6124C3.22439 31.4493 2.64282 30.0487 2.64282 28.4107V8.58925C2.64282 6.95123 3.22439 5.55066 4.38752 4.38752C5.55066 3.22439 6.95123 2.64282 8.58925 2.64282H28.4107Z"
            fill="#0866FF"></path>
</svg>