<svg class="footer_05_social-icon" xmlns="http://www.w3.org/2000/svg" width="100%" viewBox="0 0 37 37"
     fill="none">
    <g clip-path="url(#clip0_317_1021)">
        <path
                d="M18.5 37C28.7173 37 37 28.7173 37 18.5C37 8.28274 28.7173 0 18.5 0C8.28274 0 0 8.28274 0 18.5C0 28.7173 8.28274 37 18.5 37Z"
                fill="url(#paint0_linear_317_1021)"></path>
        <path d="M15.1083 26.9794C14.509 26.9794 14.6108 26.753 14.4041 26.1824L12.6416 20.3819L26.2083 12.3335"
              fill="#C8DAEA"></path>
        <path d="M15.1084 26.9791C15.5709 26.9791 15.7752 26.7676 16.0334 26.5166L18.5 24.1181L15.4232 22.2627"
              fill="#A9C9DD"></path>
        <path
                d="M15.4227 22.2631L22.8782 27.7713C23.7289 28.2408 24.343 27.9977 24.5549 26.9815L27.5897 12.6805C27.9004 11.4348 27.1148 10.8698 26.3009 11.2393L8.48082 18.1106C7.26442 18.5986 7.27152 19.2772 8.25909 19.5795L12.8322 21.0069L23.4192 14.3277C23.919 14.0245 24.3777 14.1875 24.0013 14.5216"
                fill="url(#paint1_linear_317_1021)"></path>
    </g>
    <defs>
        <linearGradient id="paint0_linear_317_1021" x1="24.6679" y1="6.1679" x2="15.4179" y2="27.75"
                        gradientUnits="userSpaceOnUse">
            <stop offset="1" stop-color="#1E80FF"></stop>
        </linearGradient>
        <linearGradient id="paint1_linear_317_1021" x1="20.8133" y1="18.5" x2="23.7086" y2="25.0878"
                        gradientUnits="userSpaceOnUse">
            <stop offset="1" stop-color="white"></stop>
        </linearGradient>
        <clipPath id="clip0_317_1021">
            <rect width="37" height="37" fill="white"></rect>
        </clipPath>
    </defs>
</svg>