<svg class="footer_05_social-icon" xmlns="http://www.w3.org/2000/svg" width="100%" viewBox="0 0 37 37"
     fill="none">
    <g clip-path="url(#clip0_317_1028)">
        <path
                d="M32.6641 0H4.33594C1.94127 0 0 1.94127 0 4.33594V32.6641C0 35.0587 1.94127 37 4.33594 37H32.6641C35.0587 37 37 35.0587 37 32.6641V4.33594C37 1.94127 35.0587 0 32.6641 0Z"
                fill="black"></path>
        <path
                d="M25.7196 7.22656H29.5445L21.1882 16.7772L31.0187 29.7734H23.3215L17.2928 21.8913L10.3947 29.7734H6.56751L15.5053 19.558L6.07495 7.22656H13.9675L19.4169 14.4312L25.7196 7.22656ZM24.3772 27.4841H26.4966L12.8158 9.39569H10.5415L24.3772 27.4841Z"
                fill="white"></path>
    </g>
    <defs>
        <clipPath id="clip0_317_1028">
            <rect width="37" height="37" fill="white"></rect>
        </clipPath>
    </defs>
</svg>
