<svg class="footer_05_social-icon" xmlns="http://www.w3.org/2000/svg" width="100%" viewBox="0 0 37 37"
     fill="none">
    <path
            d="M35.4584 14.9696C35.5346 12.763 35.052 10.5728 34.0554 8.60254C33.3793 7.79409 32.4409 7.24851 31.4038 7.06087C27.1141 6.67164 22.8067 6.5121 18.5 6.58295C14.209 6.50889 9.9171 6.66327 5.6425 7.04545C4.79739 7.19918 4.0153 7.59559 3.39167 8.18629C2.00417 9.46587 1.85 11.655 1.69583 13.505C1.47216 16.8313 1.47216 20.1688 1.69583 23.4951C1.74043 24.5363 1.89547 25.5699 2.15833 26.5784C2.34422 27.357 2.72031 28.0774 3.25292 28.6751C3.88079 29.2971 4.6811 29.716 5.55 29.8776C8.87371 30.2878 12.2227 30.4579 15.5708 30.3863C20.9667 30.4634 25.6996 30.3863 31.2959 29.9546C32.1861 29.803 33.0089 29.3835 33.6546 28.7521C34.0862 28.3203 34.4086 27.7918 34.595 27.2105C35.1464 25.5187 35.4172 23.7481 35.3967 21.9688C35.4584 21.1055 35.4584 15.8946 35.4584 14.9696ZM15.0158 22.8938V13.3509L24.1425 18.1455C21.5833 19.5638 18.2071 21.1671 15.0158 22.8938Z"
            fill="#FF0000"></path>
</svg>